<?xml version="1.0" encoding="UTF-8"?><!DOCTYPE svg PUBLIC "-//W3C//DTD SVG 1.1//EN" "http://www.w3.org/Graphics/SVG/1.1/DTD/svg11.dtd"><svg xmlns="http://www.w3.org/2000/svg" xmlns:xlink="http://www.w3.org/1999/xlink"><defs><path id="a" d="M1214.09 65.07l10.6-10.6"/><path id="b" d="M1214.2 54.2l10.6 10.6"/><path id="a" d="M2.65 2L6 6.65 9.35 2H11L9.35 4.31 6 9 2.65 4.31 1 2z"/><path id="a" d="M46 6h20"/><path id="b" d="M46 12h20"/><path id="c" d="M46 18h20"/></defs><symbol id="arrow-right" viewBox="0 0 7 10"><path fill="#00576f" d="M0 8.3L4.7 5 0 1.7V0l2.3 1.7L7 5 2.3 8.3 0 10z"/></symbol><symbol id="close"><use fill="#fff" fill-opacity="0" stroke="#fff" stroke-linecap="round" stroke-miterlimit="50" stroke-width="2" xlink:href="#a" transform="translate(-1213 -53)"/><use fill="#fff" fill-opacity="0" stroke="#fff" stroke-linecap="round" stroke-miterlimit="50" stroke-width="2" xlink:href="#b" transform="translate(-1213 -53)"/></symbol><symbol id="down-arrow"><use fill="#00576f" xlink:href="#a" transform="translate(0 -1)"/></symbol><symbol id="file-pdf"><path d="M13 0a3.348 3.348 0 00-3.333 3.333c0 2.274 1.263 5.097 2.593 7.75-1.04 3.256-2.22 6.744-3.729 9.688-3.089 1.212-5.844 2.113-7.5 3.448a.963.963 0 00-.073.083A3.377 3.377 0 000 26.667 3.348 3.348 0 003.333 30c.892 0 1.753-.333 2.375-.969a.79.79 0 00.063-.052c1.219-1.456 2.657-4.096 3.937-6.51 2.952-1.161 6.046-2.343 9.032-3.052 2.179 1.756 5.332 2.916 7.927 2.916A3.348 3.348 0 0030 19a3.348 3.348 0 00-3.333-3.333c-2.081 0-5.105.742-7.417 1.52-1.874-1.759-3.596-3.956-4.833-6.291.884-2.724 1.916-5.45 1.916-7.563A3.348 3.348 0 0013 0zm0 2c.748 0 1.333.585 1.333 1.333 0 1-.535 2.843-1.156 4.823-.83-1.926-1.51-3.775-1.51-4.823C11.667 2.585 12.252 2 13 2zm.573 11.406a26.73 26.73 0 003.458 4.396c-1.977.54-3.907 1.233-5.812 1.958.92-2.076 1.657-4.232 2.354-6.354zm13.094 4.26c.748 0 1.333.586 1.333 1.334 0 .748-.585 1.333-1.333 1.333-1.502 0-3.637-.678-5.344-1.625 1.959-.554 4.097-1.041 5.344-1.041zM6.77 23.637c-.938 1.673-1.87 3.234-2.521 4.02-.223.213-.519.344-.917.344A1.32 1.32 0 012 26.667c0-.352.15-.702.354-.927.782-.606 2.483-1.33 4.417-2.105z"/></symbol><symbol id="hamburger"><use fill="#fff" fill-opacity="0" stroke="#fff" stroke-linecap="round" stroke-miterlimit="50" stroke-width="2" xlink:href="#a" transform="translate(-45 -5)"/><use fill="#fff" fill-opacity="0" stroke="#fff" stroke-linecap="round" stroke-miterlimit="50" stroke-width="2" xlink:href="#b" transform="translate(-45 -5)"/><use fill="#fff" fill-opacity="0" stroke="#fff" stroke-linecap="round" stroke-miterlimit="50" stroke-width="2" xlink:href="#c" transform="translate(-45 -5)"/></symbol><symbol id="minus"><path d="M13.781 1.988V.04H.219v1.948z"/></symbol><symbol id="plus"><path d="M7.967 14V7.988h5.814V6.04H7.967V0H6.005v6.04H.219v1.948h5.786V14z"/></symbol></svg>